<?xml version="1.0" encoding="UTF-8"?>
<svg width="397px" height="466px" viewBox="0 0 397 466" version="1.1" xmlns="http://www.w3.org/2000/svg" xmlns:xlink="http://www.w3.org/1999/xlink">
    <!-- Generator: Sketch 52.5 (67469) - http://www.bohemiancoding.com/sketch -->
    <title>clean punch</title>
    <desc>Created with Sketch.</desc>
    <g id="clean-punch" stroke="none" stroke-width="1" fill="none" fill-rule="evenodd">
        <path d="M228.4,208.1 C226.4,204.7 229,199.3 227.5,198.4 C226.1,197.4 222.1,197.8 220.8,198.8 C219.5,199.8 218,207.7 221.3,213.8 C224.6,219.9 233.6,220.3 233.6,220.3 C233.6,220.3 232.2,209.2 228.4,208.1 Z" id="Path" fill="#36A9E1"></path>
        <path d="M212,199.3 C210.6,198.5 206.6,198.6 205.3,199.7 C204,200.8 206.9,205.9 205.1,209.5 C201.4,211 200.7,222.2 200.7,222.2 C200.7,222.2 209.6,220.8 212.5,214.4 C215.4,207.8 213.4,200.1 212,199.3 Z" id="Path" fill="#36A9E1"></path>
        <path d="M203.1,154.8 C197.3,134 176.3,124 155.5,129.8 C134.7,135.6 121.8,155 127.7,175.8 C133.5,196.6 155.1,208.8 176,203 C196.7,197.3 208.9,175.7 203.1,154.8 Z" id="Path" fill="#36A9E1"></path>
        <path d="M258.4,134.8 C242,135.5 229.3,147.6 230,164 C230.4,174.7 236.4,184.3 245.9,189.3 C255.3,194.3 266.7,193.8 275.7,188 C284.7,182.2 289.9,172.1 289.3,161.5 C288.6,145 274.8,134 258.4,134.8 Z" id="Path" fill="#36A9E1"></path>
        <path d="M372.3,197.7 C368.3,108.6 313.5,41.1 210.8,39.7 C121.6,38.5 49.2,108.5 49.2,197.7 C49.2,281.2 88.6,327.1 145.1,345.5 C141.9,347.4 138.6,349.1 135.7,351.6 C130.7,355.9 126.5,360.6 124.3,366.8 C122.6,371.3 122.9,375.2 123.8,380 C124.4,383 126.2,385.7 128.7,387.8 C130.4,389.3 133.2,390.3 135.5,390.8 C136,390.9 136.6,390.9 136.9,391 C137.3,391.2 137.3,391.1 137.5,391.4 C137.6,391.5 137.6,391.5 137.6,391.7 C137.3,394.2 136.1,396.4 135,398.7 C135,398.8 134.9,398.9 134.9,399 C134,400.9 132.9,402.8 131.9,404.7 C131.9,404.8 131.7,404.9 131.7,405 C130.5,409.1 127.2,414.9 127.8,418.9 C128.3,422.9 127.6,424.6 131.8,426.6 C135.7,428.4 146.1,421 149.2,417.8 C152.7,414.1 158.4,410.5 161,406.6 C164.1,402 163.6,399.9 162.8,394.8 C162,389.9 159.4,384.7 157.6,379.9 C157.3,379.1 156.7,378.3 156.5,377.5 C156.4,376.9 156.6,376.3 157,376 C157.5,375.6 158,375.2 158.6,374.9 C158.6,374.9 158.7,374.9 158.7,374.9 C161.4,373.3 164.5,371.8 167.1,370 C170.5,367.6 174.1,365.3 176.7,362.2 C178.9,359.5 180.7,356.6 181.9,353.5 C191.3,354.6 201,355.2 210.9,355.2 C305.8,355 376.6,292.6 372.3,197.7 Z M285.4,267.3 C282.8,274.9 278.9,281.5 273.3,287 C272.4,288.4 271.1,289.6 269.6,290.3 C261.4,296.9 250.2,301.4 235.6,303.7 C232.9,301 227.9,297.6 220.8,299.5 C216.1,300.7 214.3,303 213.8,305.3 C180.5,305.3 159,293.1 149,271.6 C148.6,270.7 148.6,269.6 149.1,268.7 C149.6,267.8 150.5,267.2 151.5,267 C155.1,266.5 160.6,267.3 165.2,268.9 C166.8,267.1 169.1,266.1 171.5,266 C176.1,265.9 180,269.3 180.6,274 C182.3,271.9 184.7,270.7 187.4,270.6 C191.6,270.5 195.3,273.4 196.3,277.6 C198.3,274.2 202.3,272.6 206,273.5 C209.8,274.4 212.5,277.7 212.8,281.6 L212.8,281.5 C212.7,277 216.2,272.7 220.5,272.1 C223.4,271.7 226.3,272.7 228.3,274.9 C229.8,271.6 232.9,269.5 236.5,269.5 C240.1,269.5 243.2,271.6 244.6,274.8 C245.9,271.4 249.1,269.1 252.8,269 C254.7,269 256.5,269.5 258,270.6 C259.6,267.8 262.4,266.1 265.6,266 C268.4,265.9 271.1,267.2 272.9,269.5 C275.7,268.1 278.4,266.2 280.7,264.1 C281.1,263.6 281.7,263.3 282.3,263.3 C284.5,262.9 286.2,265.2 285.4,267.3 Z M310.2,201.4 C310,204.4 307.5,206.6 304.6,206.8 C304.3,206.8 303.9,206.9 303.6,207 L303.9,208.6 C304.8,214.2 301.7,219.7 296.4,221.9 C295.6,227.2 291.4,231.3 286.2,232.1 C283.2,232.6 280,231.9 277.5,230.2 C276.6,234.9 273.1,238.6 268.5,239.8 C263.9,241 259,239.4 256,235.7 L255.7,235.9 C255.3,236.1 254.9,236.2 254.5,236.3 C252.9,240.2 249.3,243 245.1,243.7 C242.2,244.2 239.2,243.6 236.7,242 C235.3,246.8 231,250.3 226,250.7 C221,251.1 216.2,248.4 214,243.9 L212.9,244.1 C212.1,249.7 207.5,253.9 201.9,254.5 C196.3,255 191,251.7 189.2,246.4 L188.4,246.4 C186.8,250.4 183.2,253.4 178.9,254 C172.7,255 166.7,251.1 165.1,245 C163.2,248.1 160.1,250.2 156.6,250.7 C150.5,251.7 144.6,247.9 142.9,242 C139.5,241.5 136.5,239.6 134.5,236.8 C133.8,236.9 133.1,237 132.5,237.2 C126.2,238.3 120,235 117.5,229.1 C114,221 111.5,212 110,202.2 C101.9,151.2 133.6,103.2 182.1,89.6 C188.8,95.9 195.8,106.1 195,112.2 L202.3,109.2 C207.8,116.5 207.5,121.4 207.5,121.4 L213.7,97 C211.6,96 203.1,98.3 203.1,98.3 C203.1,98.3 202,91.4 199.6,86.4 C253.8,81.1 302.4,121.1 309.5,175.9 C310.4,184.8 310.8,193.3 310.2,201.4 Z" id="Shape" fill="#36A9E1"></path>
    </g>
</svg>